<?xml version="1.0" encoding="UTF-8" standalone="no" ?>
<!DOCTYPE svg PUBLIC "-//W3C//DTD SVG 1.1//EN" "http://www.w3.org/Graphics/SVG/1.1/DTD/svg11.dtd">
<svg xmlns="http://www.w3.org/2000/svg" xmlns:xlink="http://www.w3.org/1999/xlink" version="1.1" width="500" height="500" viewBox="0 0 500 500" xml:space="preserve">
<desc>Created with Fabric.js 3.6.3</desc>
<defs>
</defs>
<rect x="0" y="0" width="100%" height="100%" fill="#ffffff"></rect>
<g transform="matrix(1.3858791084338873 0 0 0.14782710489961465 249.5288500000001 272.360944)"  >
<circle style="stroke: none; stroke-width: 1; stroke-dasharray: none; stroke-linecap: butt; stroke-dashoffset: 0; stroke-linejoin: miter; stroke-miterlimit: 4; fill: rgb(40,153,118); fill-rule: evenodd; opacity: 0.25;"  cx="0" cy="0" r="47.0059" />
</g>
<g transform="matrix(1 0 0 1 250.09 329.2805)" style=""  ><path fill="#00A388" opacity="1" d="M-104.38-1.88C-104.38 2.98-105.83 10.62-112.74 10.62L-118.13 10.62L-118.13-13.50L-112.74-13.50C-105.87-13.50-104.38-6.75-104.38-1.88ZM-122.15 10.22L-125.77 11.22L-125.77 12.63L-112.74 12.63C-104.38 12.63-99.96 5.03-99.96-1.88C-99.96-8.76-104.38-15.51-112.74-15.51L-125.77-15.51L-125.77-14.10L-122.15-13.10Z"/><path fill="#00A388" opacity="1" d="M-89.10-5.86C-86.05-5.86-84.60-4.70-84.60-1.48L-84.60 1.37C-94.25 1.37-96.54 4.79-96.54 7.68C-96.54 10.74-94.21 13.03-90.47 13.03C-88.90 13.03-86.73 12.35-84.60 10.62L-83.80 13.03L-78.17 11.82L-78.17 10.42L-80.98 9.81L-80.98-1.96C-80.98-6.02-83.84-7.87-88.06-7.87C-89.47-7.87-92.80-7.43-95.17-6.47L-95.17-1.84L-93.16-1.84L-91.76-5.26C-90.47-5.70-89.59-5.86-89.10-5.86ZM-84.60 8.21C-85.89 9.77-87.70 10.82-89.26 10.82C-90.11 10.82-92.84 10.38-92.84 7.68C-92.84 4.95-90.83 3.18-84.60 3.18Z"/><path fill="#00A388" opacity="1" d="M-68.32-5.86C-67.23-5.86-66.99-5.58-66.11-5.26L-64.74-1.84L-62.69-1.84L-62.69-6.43C-65.02-7.71-67.60-7.87-68.32-7.87C-72.02-7.87-74.99-5.38-74.99-1.76C-74.99 0.09-73.55 2.18-68.88 3.95C-66.31 4.91-64.78 6.44-64.78 7.84C-64.78 9.73-66.07 11.02-67.88 11.02C-69.65 11.02-70.37 10.62-71.94 10.02L-73.34 6.56L-75.35 6.56L-75.35 11.22C-73.43 12.15-70.65 13.03-67.88 13.03C-63.42 13.03-61.20 10.06-61.20 7.00C-61.20 5.79-62.05 3.02-66.83 0.93C-71.01-0.36-71.62-1.96-71.62-2.97C-71.62-4.42-70.13-5.86-68.32-5.86Z"/><path fill="#00A388" opacity="1" d="M-51.64-17.12L-57.99-15.91L-57.99-14.51L-55.17-13.90L-55.17 10.22L-57.99 11.22L-57.99 12.63L-49.22 12.63L-49.22 11.22L-51.64 10.22L-51.64-3.85C-49.91-4.70-48.34-5.06-47.01-5.06C-43.28-5.06-42.11-3.57-42.11-0.84L-42.11 10.22L-44.52 11.22L-44.52 12.63L-35.72 12.63L-35.72 11.22L-38.49 10.22L-38.49-1.16C-38.49-5.02-40.14-7.87-45.08-7.87C-46.57-7.87-48.74-7.03-51.64-5.46Z"/><path fill="#00A388" opacity="1" d=""/><path fill="#00A388" opacity="1" d="M-22.25 11.42C-18.71 12.43-16.30 13.03-13.53 13.03C-7.86 13.03-4.12 9.69-4.12 5.15C-4.12 2.22-5.85-0.64-11.60-3.21C-16.74-5.46-18.07-7.11-18.07-10.00C-18.07-12.46-15.54-13.90-12.52-13.90C-11.76-13.90-10.55-13.74-9.59-13.30L-7.62-8.48L-5.61-8.48L-5.57-14.51C-8.14-15.55-9.99-15.91-12.12-15.91C-17.71-15.91-21.89-13.02-21.89-8.36C-21.89-6.06-21.65-3.13-14.01 0.09C-9.27 2.34-8.14 4.11-8.14 6.44C-8.14 8.65-10.11 11.02-13.53 11.02C-14.53 11.02-16.74 11.02-18.31 10.42L-20.28 5.31L-22.25 5.31Z"/><path fill="#00A388" opacity="1" d="M15.66-5.06L18.47-6.06L18.47-7.47L10.47-7.47L10.47-6.06L13.29-5.06L8.02 8.81L7.78 8.85L7.78 6.88L3.20-5.06L6.01-6.06L6.01-7.47L-3.52-7.47L-3.52-6.06L-0.70-5.06L6.57 12.63L6.57 13.03L1.07 21.51L4.84 23.48Z"/><path fill="#00A388" opacity="1" d="M27.60-5.86C28.68-5.86 28.92-5.58 29.81-5.26L31.18-1.84L33.23-1.84L33.23-6.43C30.89-7.71 28.32-7.87 27.60-7.87C23.90-7.87 20.92-5.38 20.92-1.76C20.92 0.09 22.37 2.18 27.03 3.95C29.61 4.91 31.13 6.44 31.13 7.84C31.13 9.73 29.85 11.02 28.04 11.02C26.27 11.02 25.55 10.62 23.98 10.02L22.57 6.56L20.56 6.56L20.56 11.22C22.49 12.15 25.27 13.03 28.04 13.03C32.50 13.03 34.71 10.06 34.71 7.00C34.71 5.79 33.87 3.02 29.08 0.93C24.90-0.36 24.30-1.96 24.30-2.97C24.30-4.42 25.79-5.86 27.60-5.86Z"/><path fill="#00A388" opacity="1" d="M49.99-7.47L43.56-7.47L43.56-12.50L41.55-12.50L39.94-7.51L39.94-7.47L37.12-6.67L37.12-5.46L39.94-5.46L39.94 8.53C39.94 11.42 42.03 13.03 45.08 13.03C48.02 13.03 49.22 11.82 50.23 11.14L49.51 9.89C49.02 10.18 47.86 10.86 46.29 10.86C43.60 10.86 43.68 9.25 43.56 7.12L43.56-5.46L49.99-5.46Z"/><path fill="#00A388" opacity="1" d="M70.17 2.26C70.29-4.66 67.15-7.87 61.89-7.87C56.22-7.87 52.64-2.93 52.64 2.86C52.64 8.85 56.22 13.03 61.89 13.03C65.26 13.03 66.91 12.47 69.89 10.22L69.20 8.97C67.64 9.81 65.51 10.62 63.09 10.62C58.59 10.62 56.58 7.48 56.38 2.26ZM61.89-5.86C64.82-5.86 66.55-3.61 66.55 0.25L56.42 0.25C56.66-2.85 57.95-5.86 61.89-5.86Z"/><path fill="#00A388" opacity="1" d="M76.32 10.22L73.47 11.22L73.47 12.63L82.63 12.63L82.63 11.22L79.86 10.22L79.86-3.85C81.75-4.70 83.07-5.06 84.20-5.06C87.94-5.06 89.10-3.57 89.10-0.84L89.10 10.22L86.29 11.22L86.29 12.63L95.58 12.63L95.58 11.22L92.76 10.22L92.76-3.85C94.65-4.70 95.98-5.06 97.10-5.06C100.84-5.06 102.01-3.57 102.01-0.84L102.01 10.22L99.19 11.22L99.19 12.63L108.40 12.63L108.40 11.22L105.59 10.22L105.59-1.16C105.59-5.02 104.02-7.87 99.03-7.87C97.46-7.87 94.89-7.11 91.96-5.14C91.03-6.79 89.18-7.87 86.13-7.87C84.84-7.87 82.79-7.11 79.86-5.46L79.46-8.07L73.47-6.87L73.47-5.46L76.32-4.86Z"/><path fill="#00A388" opacity="1" d="M118.25-5.86C119.33-5.86 119.57-5.58 120.46-5.26L121.83-1.84L123.88-1.84L123.88-6.43C121.54-7.71 118.97-7.87 118.25-7.87C114.55-7.87 111.58-5.38 111.58-1.76C111.58 0.09 113.02 2.18 117.69 3.95C120.26 4.91 121.79 6.44 121.79 7.84C121.79 9.73 120.50 11.02 118.69 11.02C116.92 11.02 116.20 10.62 114.63 10.02L113.22 6.56L111.21 6.56L111.21 11.22C113.14 12.15 115.92 13.03 118.69 13.03C123.15 13.03 125.36 10.06 125.36 7.00C125.36 5.79 124.52 3.02 119.74 0.93C115.55-0.36 114.95-1.96 114.95-2.97C114.95-4.42 116.44-5.86 118.25-5.86Z"/></g><g transform="matrix(1.247015101559437 0 0 1.247015101559437 249.52885000000003 216.11550000000005)"  >
<linearGradient id="SVGID_26361" gradientUnits="userSpaceOnUse" gradientTransform="matrix(1 0 0 1 5.0004350000000315 4.9999500000000054)"  x1="0" y1="0" x2="89.99956499999998" y2="89.99971199999996">
<stop offset="0%" style="stop-color:rgb(20,125,108);stop-opacity: 1"/>
<stop offset="100%" style="stop-color:rgb(30,255,255);stop-opacity: 1"/>
</linearGradient>
<path style="stroke: none; stroke-width: 0; stroke-dasharray: none; stroke-linecap: butt; stroke-dashoffset: 0; stroke-linejoin: miter; stroke-miterlimit: 4; fill: url(#SVGID_26361); fill-rule: nonzero; opacity: 1;"  transform=" translate(-50.00021750000002, -49.999805999999985)" d="m 87.293 51.074 c 0.53516 1.8867 2.3789 3.0898 4.3203 2.8164 c 1.9414 -0.26953 3.3867 -1.9297 3.3867 -3.8906 s -1.4453 -3.6211 -3.3867 -3.8906 c -1.9414 -0.27344 -3.7852 0.92969 -4.3203 2.8164 h -15.43 v -5.1953 h 7.8477 c 0.19141 0 0.375 -0.046875 0.53906 -0.14062 l 4.4102 -2.5469 c 1.4062 1.3594 3.5977 1.4727 5.1406 0.26953 c 1.5391 -1.207 1.957 -3.3633 0.97656 -5.0547 c -0.98047 -1.6953 -3.0586 -2.4062 -4.8711 -1.6719 c -1.8125 0.73828 -2.8047 2.6953 -2.3242 4.5938 l -4.1562 2.3984 h -7.5586 l -0.003907 -3.5781 c 0 -0.38281 -0.20312 -0.73828 -0.53906 -0.93359 l -12.902 -7.4531 v -9.0391 l 2.3984 -4.1562 c 1.9062 0.48438 3.875 -0.51172 4.6133 -2.332 c 0.74219 -1.8203 0.027344 -3.9062 -1.6719 -4.8906 c -1.7031 -0.98828 -3.8672 -0.56641 -5.0781 0.98047 c -1.2109 1.5508 -1.0938 3.7539 0.27344 5.1641 l -2.5469 4.4102 c -0.09375 0.16406 -0.14062 0.34766 -0.14062 0.53906 v 8.0859 l -5.1914 -3 l -0.003906 -12.668 c 1.8867 -0.53516 3.0898 -2.3789 2.8164 -4.3203 c -0.26953 -1.9414 -1.9297 -3.3867 -3.8906 -3.3867 s -3.6211 1.4453 -3.8906 3.3867 c -0.27344 1.9414 0.92969 3.7852 2.8164 4.3203 v 12.668 l -5.1914 3 l -0.003906 -8.0859 c 0 -0.19141 -0.046875 -0.375 -0.14062 -0.53906 l -2.5469 -4.4102 c 1.3594 -1.4062 1.4727 -3.5977 0.26953 -5.1406 c -1.207 -1.5391 -3.3633 -1.957 -5.0547 -0.97656 c -1.6953 0.98047 -2.4062 3.0586 -1.6719 4.8711 c 0.73828 1.8125 2.6953 2.8047 4.5938 2.3242 l 2.3984 4.1562 v 9.0391 l -12.902 7.4531 c -0.33594 0.19141 -0.53906 0.54688 -0.53906 0.92969 v 3.582 h -7.5586 l -4.1562 -2.3984 h -0.003906 c 0.48438 -1.9062 -0.51172 -3.875 -2.332 -4.6133 c -1.8203 -0.74219 -3.9062 -0.027344 -4.8906 1.6719 c -0.98828 1.7031 -0.56641 3.8672 0.98047 5.0781 c 1.5508 1.2109 3.7539 1.0938 5.1641 -0.27344 l 4.4102 2.5469 c 0.16406 0.09375 0.34766 0.14062 0.53906 0.14062 h 7.8477 v 5.1914 l -15.43 0.003906 c -0.53516 -1.8867 -2.3789 -3.0898 -4.3203 -2.8164 c -1.9414 0.26953 -3.3867 1.9297 -3.3867 3.8906 s 1.4453 3.6211 3.3867 3.8906 c 1.9414 0.27344 3.7852 -0.92969 4.3203 -2.8164 h 15.43 v 5.1914 l -7.8477 0.003906 c -0.19141 0 -0.375 0.046875 -0.53906 0.14062 l -4.4102 2.5469 c -1.4062 -1.3594 -3.5977 -1.4727 -5.1406 -0.26953 c -1.5391 1.207 -1.957 3.3633 -0.97656 5.0547 c 0.98047 1.6953 3.0586 2.4062 4.8711 1.6719 c 1.8125 -0.73828 2.8047 -2.6953 2.3242 -4.5938 l 4.1562 -2.3984 h 7.5586 l 0.003907 3.5781 c 0 0.38281 0.20312 0.73828 0.53906 0.93359 l 12.902 7.4531 v 9.0391 l -2.3984 4.1562 c -1.9062 -0.48438 -3.875 0.51172 -4.6133 2.332 c -0.74219 1.8203 -0.027344 3.9062 1.6719 4.8906 c 1.7031 0.98828 3.8672 0.56641 5.0781 -0.98047 c 1.2109 -1.5508 1.0938 -3.7539 -0.27344 -5.1641 l 2.5469 -4.4102 c 0.09375 -0.16406 0.14062 -0.34766 0.14062 -0.53906 v -8.082 l 5.1914 3 l 0.003906 12.664 c -1.8867 0.53516 -3.0898 2.3789 -2.8164 4.3203 c 0.26953 1.9414 1.9297 3.3867 3.8906 3.3867 s 3.6211 -1.4453 3.8906 -3.3867 c 0.27344 -1.9414 -0.92969 -3.7852 -2.8164 -4.3203 v -12.668 l 5.1914 -3 v 8.0859 h 0.003906 c 0 0.1875 0.046875 0.375 0.14062 0.53516 l 2.5469 4.4102 c -1.3516 1.4062 -1.4648 3.5898 -0.26562 5.1289 c 1.2031 1.5352 3.3555 1.9492 5.043 0.97266 c 1.6875 -0.97656 2.3984 -3.0469 1.6641 -4.8555 c -0.73438 -1.8086 -2.6875 -2.7969 -4.5781 -2.3242 l -2.3984 -4.1562 v -9.0352 l 12.906 -7.4531 h -0.003906 c 0.33594 -0.19141 0.53906 -0.54688 0.53906 -0.93359 v -3.5781 h 7.5586 l 4.1562 2.3984 h 0.003906 c -0.48438 1.9062 0.51172 3.875 2.332 4.6133 c 1.8203 0.74219 3.9062 0.027344 4.8906 -1.6719 c 0.98828 -1.7031 0.56641 -3.8672 -0.98047 -5.0781 c -1.5508 -1.2109 -3.7539 -1.0938 -5.1641 0.27344 l -4.4102 -2.5469 c -0.16406 -0.09375 -0.34766 -0.14062 -0.53906 -0.14062 h -7.8477 v -5.1953 z m 3.7773 -2.8555 v 0.003906 c 0.71875 0 1.3672 0.43359 1.6445 1.0977 c 0.27344 0.66406 0.12109 1.4297 -0.38672 1.9375 c -0.51172 0.50781 -1.2734 0.66016 -1.9375 0.38281 c -0.66406 -0.27344 -1.0977 -0.92188 -1.0977 -1.6406 c 0 -0.98047 0.79688 -1.7773 1.7773 -1.7773 z m -3.6797 -11.773 c 0.71875 0 1.3672 0.43359 1.6445 1.0977 c 0.27344 0.66406 0.12109 1.4297 -0.38672 1.9375 c -0.50781 0.50781 -1.2734 0.66016 -1.9375 0.38281 c -0.66406 -0.27344 -1.0977 -0.92188 -1.0977 -1.6406 c 0.003907 -0.98047 0.79688 -1.7773 1.7773 -1.7773 z m -25.613 -25.617 c 0.71875 0 1.3672 0.43359 1.6445 1.0977 c 0.27344 0.66797 0.12109 1.4297 -0.38672 1.9414 c -0.50781 0.50781 -1.2734 0.66016 -1.9375 0.38281 c -0.66406 -0.27344 -1.0977 -0.92188 -1.0977 -1.6406 c 0 -0.98438 0.79688 -1.7773 1.7773 -1.7812 z m -25.332 1.7812 c 0 -0.71875 0.43359 -1.3672 1.0977 -1.6445 c 0.66406 -0.27344 1.4297 -0.12109 1.9375 0.38672 c 0.50781 0.50781 0.66016 1.2734 0.38281 1.9375 c -0.27344 0.66406 -0.92188 1.0977 -1.6406 1.0977 c -0.98047 -0.003907 -1.7773 -0.79688 -1.7773 -1.7773 z m -23.836 27.391 c -0.71875 0 -1.3672 -0.43359 -1.6445 -1.0977 c -0.27344 -0.66406 -0.12109 -1.4297 0.38672 -1.9375 c 0.50781 -0.50781 1.2734 -0.66016 1.9375 -0.38672 c 0.66406 0.27734 1.0977 0.92578 1.0977 1.6445 c -0.003907 0.98047 -0.79688 1.7773 -1.7773 1.7773 z m -3.6797 11.777 c -0.71875 0 -1.3672 -0.43359 -1.6445 -1.0977 c -0.27344 -0.66406 -0.12109 -1.4297 0.38672 -1.9375 c 0.50781 -0.50781 1.2734 -0.66016 1.9375 -0.38672 c 0.66406 0.27734 1.0977 0.92578 1.0977 1.6445 c 0 0.98047 -0.79688 1.7773 -1.7773 1.7773 z m 3.6797 11.777 c -0.71875 0 -1.3672 -0.43359 -1.6445 -1.0977 c -0.27344 -0.66406 -0.12109 -1.4297 0.38672 -1.9375 c 0.50781 -0.50781 1.2734 -0.66016 1.9375 -0.38281 c 0.66406 0.27344 1.0977 0.92188 1.0977 1.6406 c -0.003907 0.98047 -0.79688 1.7773 -1.7773 1.7773 z m 25.613 25.617 c -0.71875 0 -1.3672 -0.43359 -1.6445 -1.0977 c -0.27344 -0.66797 -0.12109 -1.4297 0.38672 -1.9414 c 0.50781 -0.50781 1.2734 -0.66016 1.9375 -0.38281 c 0.66406 0.27344 1.0977 0.92188 1.0977 1.6406 c 0 0.98438 -0.79688 1.7773 -1.7773 1.7812 z m 25.336 -1.7773 l -0.003906 -0.003906 c 0 0.71875 -0.43359 1.3672 -1.0977 1.6445 c -0.66406 0.27344 -1.4297 0.12109 -1.9375 -0.38672 c -0.50781 -0.50781 -0.66016 -1.2734 -0.38281 -1.9375 c 0.27344 -0.66406 0.92188 -1.0977 1.6406 -1.0977 c 0.98047 0.003907 1.7773 0.79688 1.7773 1.7773 z m 23.832 -27.395 c 0.71875 0 1.3672 0.43359 1.6445 1.0977 c 0.27344 0.66406 0.12109 1.4297 -0.38672 1.9375 c -0.50781 0.50781 -1.2734 0.66016 -1.9375 0.38672 c -0.66406 -0.27734 -1.0977 -0.92578 -1.0977 -1.6445 c 0.003907 -0.98047 0.79688 -1.7773 1.7773 -1.7773 z m -39.168 -51.07 c 0 -0.71875 0.43359 -1.3672 1.0977 -1.6445 c 0.66406 -0.27344 1.4297 -0.12109 1.9375 0.38672 c 0.50781 0.50781 0.66016 1.2734 0.38672 1.9375 c -0.27734 0.66406 -0.92578 1.0977 -1.6445 1.0977 c -0.98047 0 -1.7773 -0.79688 -1.7773 -1.7773 z m 3.5547 82.141 c 0 0.71875 -0.43359 1.3672 -1.0977 1.6445 c -0.66406 0.27344 -1.4297 0.12109 -1.9375 -0.38672 c -0.50781 -0.50781 -0.66016 -1.2734 -0.38672 -1.9375 c 0.27734 -0.66406 0.92578 -1.0977 1.6445 -1.0977 c 0.98047 0 1.7773 0.79688 1.7773 1.7773 z m 17.934 -29.691 l -19.711 11.383 l -19.715 -11.379 v -22.766 l 19.715 -11.379 l 19.715 11.379 z m -20.25 -29.418 l -14.816 8.5547 c -0.33203 0.19141 -0.53906 0.54688 -0.53906 0.92969 v 17.109 c 0 0.38281 0.20703 0.73828 0.53906 0.92969 l 14.816 8.5547 c 0.33594 0.19531 0.74219 0.19531 1.0781 0 l 14.816 -8.5547 c 0.33203 -0.19141 0.53906 -0.54688 0.53906 -0.92969 v -17.109 c 0 -0.38281 -0.20703 -0.73828 -0.53906 -0.92969 l -14.816 -8.5547 c -0.33594 -0.19531 -0.74219 -0.19531 -1.0781 0 z m 14.281 24.73 l -11.59 -6.6914 l 11.59 -6.6914 z m -27.484 -13.383 l 11.59 6.6914 l -11.59 6.6914 z m 1.0742 -1.8633 l 11.59 -6.6914 l 0.003906 13.383 z m 11.59 10.418 l 0.003906 13.383 l -11.59 -6.6914 z m 2.1523 0 l 11.59 6.6914 l -11.59 6.6914 z m 0 -3.7266 v -13.383 l 11.59 6.6914 z" stroke-linecap="round" />
</g>
</svg>