<?xml version="1.0" encoding="UTF-8" standalone="no" ?>
<!DOCTYPE svg PUBLIC "-//W3C//DTD SVG 1.1//EN" "http://www.w3.org/Graphics/SVG/1.1/DTD/svg11.dtd">
<svg xmlns="http://www.w3.org/2000/svg" xmlns:xlink="http://www.w3.org/1999/xlink" version="1.1" width="500" height="500" viewBox="0 0 500 500" xml:space="preserve">
<desc>Created with Fabric.js 3.6.3</desc>
<defs>
</defs>
<g transform="matrix(1.3858791084338873 0 0 0.14782710489961465 249.5288500000001 272.360944)"  >
<circle style="stroke: none; stroke-width: 1; stroke-dasharray: none; stroke-linecap: butt; stroke-dashoffset: 0; stroke-linejoin: miter; stroke-miterlimit: 4; fill: rgb(40,153,118); fill-rule: evenodd; opacity: 0.25;"  cx="0" cy="0" r="47.0059" />
</g>
<g transform="matrix(1 0 0 1 250.09 329.2805)" style=""  ><path fill="#00A388" opacity="1" d="M-104.38-1.88C-104.38 2.98-105.83 10.62-112.74 10.62L-118.13 10.62L-118.13-13.50L-112.74-13.50C-105.87-13.50-104.38-6.75-104.38-1.88ZM-122.15 10.22L-125.77 11.22L-125.77 12.63L-112.74 12.63C-104.38 12.63-99.96 5.03-99.96-1.88C-99.96-8.76-104.38-15.51-112.74-15.51L-125.77-15.51L-125.77-14.10L-122.15-13.10Z"/><path fill="#00A388" opacity="1" d="M-89.10-5.86C-86.05-5.86-84.60-4.70-84.60-1.48L-84.60 1.37C-94.25 1.37-96.54 4.79-96.54 7.68C-96.54 10.74-94.21 13.03-90.47 13.03C-88.90 13.03-86.73 12.35-84.60 10.62L-83.80 13.03L-78.17 11.82L-78.17 10.42L-80.98 9.81L-80.98-1.96C-80.98-6.02-83.84-7.87-88.06-7.87C-89.47-7.87-92.80-7.43-95.17-6.47L-95.17-1.84L-93.16-1.84L-91.76-5.26C-90.47-5.70-89.59-5.86-89.10-5.86ZM-84.60 8.21C-85.89 9.77-87.70 10.82-89.26 10.82C-90.11 10.82-92.84 10.38-92.84 7.68C-92.84 4.95-90.83 3.18-84.60 3.18Z"/><path fill="#00A388" opacity="1" d="M-68.32-5.86C-67.23-5.86-66.99-5.58-66.11-5.26L-64.74-1.84L-62.69-1.84L-62.69-6.43C-65.02-7.71-67.60-7.87-68.32-7.87C-72.02-7.87-74.99-5.38-74.99-1.76C-74.99 0.09-73.55 2.18-68.88 3.95C-66.31 4.91-64.78 6.44-64.78 7.84C-64.78 9.73-66.07 11.02-67.88 11.02C-69.65 11.02-70.37 10.62-71.94 10.02L-73.34 6.56L-75.35 6.56L-75.35 11.22C-73.43 12.15-70.65 13.03-67.88 13.03C-63.42 13.03-61.20 10.06-61.20 7.00C-61.20 5.79-62.05 3.02-66.83 0.93C-71.01-0.36-71.62-1.96-71.62-2.97C-71.62-4.42-70.13-5.86-68.32-5.86Z"/><path fill="#00A388" opacity="1" d="M-51.64-17.12L-57.99-15.91L-57.99-14.51L-55.17-13.90L-55.17 10.22L-57.99 11.22L-57.99 12.63L-49.22 12.63L-49.22 11.22L-51.64 10.22L-51.64-3.85C-49.91-4.70-48.34-5.06-47.01-5.06C-43.28-5.06-42.11-3.57-42.11-0.84L-42.11 10.22L-44.52 11.22L-44.52 12.63L-35.72 12.63L-35.72 11.22L-38.49 10.22L-38.49-1.16C-38.49-5.02-40.14-7.87-45.08-7.87C-46.57-7.87-48.74-7.03-51.64-5.46Z"/><path fill="#00A388" opacity="1" d=""/><path fill="#00A388" opacity="1" d="M-22.25 11.42C-18.71 12.43-16.30 13.03-13.53 13.03C-7.86 13.03-4.12 9.69-4.12 5.15C-4.12 2.22-5.85-0.64-11.60-3.21C-16.74-5.46-18.07-7.11-18.07-10.00C-18.07-12.46-15.54-13.90-12.52-13.90C-11.76-13.90-10.55-13.74-9.59-13.30L-7.62-8.48L-5.61-8.48L-5.57-14.51C-8.14-15.55-9.99-15.91-12.12-15.91C-17.71-15.91-21.89-13.02-21.89-8.36C-21.89-6.06-21.65-3.13-14.01 0.09C-9.27 2.34-8.14 4.11-8.14 6.44C-8.14 8.65-10.11 11.02-13.53 11.02C-14.53 11.02-16.74 11.02-18.31 10.42L-20.28 5.31L-22.25 5.31Z"/><path fill="#00A388" opacity="1" d="M15.66-5.06L18.47-6.06L18.47-7.47L10.47-7.47L10.47-6.06L13.29-5.06L8.02 8.81L7.78 8.85L7.78 6.88L3.20-5.06L6.01-6.06L6.01-7.47L-3.52-7.47L-3.52-6.06L-0.70-5.06L6.57 12.63L6.57 13.03L1.07 21.51L4.84 23.48Z"/><path fill="#00A388" opacity="1" d="M27.60-5.86C28.68-5.86 28.92-5.58 29.81-5.26L31.18-1.84L33.23-1.84L33.23-6.43C30.89-7.71 28.32-7.87 27.60-7.87C23.90-7.87 20.92-5.38 20.92-1.76C20.92 0.09 22.37 2.18 27.03 3.95C29.61 4.91 31.13 6.44 31.13 7.84C31.13 9.73 29.85 11.02 28.04 11.02C26.27 11.02 25.55 10.62 23.98 10.02L22.57 6.56L20.56 6.56L20.56 11.22C22.49 12.15 25.27 13.03 28.04 13.03C32.50 13.03 34.71 10.06 34.71 7.00C34.71 5.79 33.87 3.02 29.08 0.93C24.90-0.36 24.30-1.96 24.30-2.97C24.30-4.42 25.79-5.86 27.60-5.86Z"/><path fill="#00A388" opacity="1" d="M49.99-7.47L43.56-7.47L43.56-12.50L41.55-12.50L39.94-7.51L39.94-7.47L37.12-6.67L37.12-5.46L39.94-5.46L39.94 8.53C39.94 11.42 42.03 13.03 45.08 13.03C48.02 13.03 49.22 11.82 50.23 11.14L49.51 9.89C49.02 10.18 47.86 10.86 46.29 10.86C43.60 10.86 43.68 9.25 43.56 7.12L43.56-5.46L49.99-5.46Z"/><path fill="#00A388" opacity="1" d="M70.17 2.26C70.29-4.66 67.15-7.87 61.89-7.87C56.22-7.87 52.64-2.93 52.64 2.86C52.64 8.85 56.22 13.03 61.89 13.03C65.26 13.03 66.91 12.47 69.89 10.22L69.20 8.97C67.64 9.81 65.51 10.62 63.09 10.62C58.59 10.62 56.58 7.48 56.38 2.26ZM61.89-5.86C64.82-5.86 66.55-3.61 66.55 0.25L56.42 0.25C56.66-2.85 57.95-5.86 61.89-5.86Z"/><path fill="#00A388" opacity="1" d="M76.32 10.22L73.47 11.22L73.47 12.63L82.63 12.63L82.63 11.22L79.86 10.22L79.86-3.85C81.75-4.70 83.07-5.06 84.20-5.06C87.94-5.06 89.10-3.57 89.10-0.84L89.10 10.22L86.29 11.22L86.29 12.63L95.58 12.63L95.58 11.22L92.76 10.22L92.76-3.85C94.65-4.70 95.98-5.06 97.10-5.06C100.84-5.06 102.01-3.57 102.01-0.84L102.01 10.22L99.19 11.22L99.19 12.63L108.40 12.63L108.40 11.22L105.59 10.22L105.59-1.16C105.59-5.02 104.02-7.87 99.03-7.87C97.46-7.87 94.89-7.11 91.96-5.14C91.03-6.79 89.18-7.87 86.13-7.87C84.84-7.87 82.79-7.11 79.86-5.46L79.46-8.07L73.47-6.87L73.47-5.46L76.32-4.86Z"/><path fill="#00A388" opacity="1" d="M118.25-5.86C119.33-5.86 119.57-5.58 120.46-5.26L121.83-1.84L123.88-1.84L123.88-6.43C121.54-7.71 118.97-7.87 118.25-7.87C114.55-7.87 111.58-5.38 111.58-1.76C111.58 0.09 113.02 2.18 117.69 3.95C120.26 4.91 121.79 6.44 121.79 7.84C121.79 9.73 120.50 11.02 118.69 11.02C116.92 11.02 116.20 10.62 114.63 10.02L113.22 6.56L111.21 6.56L111.21 11.22C113.14 12.15 115.92 13.03 118.69 13.03C123.15 13.03 125.36 10.06 125.36 7.00C125.36 5.79 124.52 3.02 119.74 0.93C115.55-0.36 114.95-1.96 114.95-2.97C114.95-4.42 116.44-5.86 118.25-5.86Z"/></g><g transform="matrix(1.247015101559437 0 0 1.247015101559437 249.52885000000003 216.11550000000005)"  >
<linearGradient id="SVGID_26359" gradientUnits="userSpaceOnUse" gradientTransform="matrix(1 0 0 1 5.0004350000000315 4.9999500000000054)"  x1="0" y1="0" x2="89.99956499999998" y2="89.99971199999996">
<stop offset="0%" style="stop-color:rgb(20,125,108);stop-opacity: 1"/>
<stop offset="100%" style="stop-color:rgb(30,255,255);stop-opacity: 1"/>
</linearGradient>
<path style="stroke: none; stroke-width: 0; stroke-dasharray: none; stroke-linecap: butt; stroke-dashoffset: 0; stroke-linejoin: miter; stroke-miterlimit: 4; fill: url(#SVGID_26359); fill-rule: nonzero; opacity: 1;"  transform=" translate(-50.00021750000002, -49.999805999999985)" d="m 87.293 51.074 c 0.53516 1.8867 2.3789 3.0898 4.3203 2.8164 c 1.9414 -0.26953 3.3867 -1.9297 3.3867 -3.8906 s -1.4453 -3.6211 -3.3867 -3.8906 c -1.9414 -0.27344 -3.7852 0.92969 -4.3203 2.8164 h -15.43 v -5.1953 h 7.8477 c 0.19141 0 0.375 -0.046875 0.53906 -0.14062 l 4.4102 -2.5469 c 1.4062 1.3594 3.5977 1.4727 5.1406 0.26953 c 1.5391 -1.207 1.957 -3.3633 0.97656 -5.0547 c -0.98047 -1.6953 -3.0586 -2.4062 -4.8711 -1.6719 c -1.8125 0.73828 -2.8047 2.6953 -2.3242 4.5938 l -4.1562 2.3984 h -7.5586 l -0.003907 -3.5781 c 0 -0.38281 -0.20312 -0.73828 -0.53906 -0.93359 l -12.902 -7.4531 v -9.0391 l 2.3984 -4.1562 c 1.9062 0.48438 3.875 -0.51172 4.6133 -2.332 c 0.74219 -1.8203 0.027344 -3.9062 -1.6719 -4.8906 c -1.7031 -0.98828 -3.8672 -0.56641 -5.0781 0.98047 c -1.2109 1.5508 -1.0938 3.7539 0.27344 5.1641 l -2.5469 4.4102 c -0.09375 0.16406 -0.14062 0.34766 -0.14062 0.53906 v 8.0859 l -5.1914 -3 l -0.003906 -12.668 c 1.8867 -0.53516 3.0898 -2.3789 2.8164 -4.3203 c -0.26953 -1.9414 -1.9297 -3.3867 -3.8906 -3.3867 s -3.6211 1.4453 -3.8906 3.3867 c -0.27344 1.9414 0.92969 3.7852 2.8164 4.3203 v 12.668 l -5.1914 3 l -0.003906 -8.0859 c 0 -0.19141 -0.046875 -0.375 -0.14062 -0.53906 l -2.5469 -4.4102 c 1.3594 -1.4062 1.4727 -3.5977 0.26953 -5.1406 c -1.207 -1.5391 -3.3633 -1.957 -5.0547 -0.97656 c -1.6953 0.98047 -2.4062 3.0586 -1.6719 4.8711 c 0.73828 1.8125 2.6953 2.8047 4.5938 2.3242 l 2.3984 4.1562 v 9.0391 l -12.902 7.4531 c -0.33594 0.19141 -0.53906 0.54688 -0.53906 0.92969 v 3.582 h -7.5586 l -4.1562 -2.3984 h -0.003906 c 0.48438 -1.9062 -0.51172 -3.875 -2.332 -4.6133 c -1.8203 -0.74219 -3.9062 -0.027344 -4.8906 1.6719 c -0.98828 1.7031 -0.56641 3.8672 0.98047 5.0781 c 1.5508 1.2109 3.7539 1.0938 5.1641 -0.27344 l 4.4102 2.5469 c 0.16406 0.09375 0.34766 0.14062 0.53906 0.14062 h 7.8477 v 5.1914 l -15.43 0.003906 c -0.53516 -1.8867 -2.3789 -3.0898 -4.3203 -2.8164 c -1.9414 0.26953 -3.3867 1.9297 -3.3867 3.8906 s 1.4453 3.6211 3.3867 3.8906 c 1.9414 0.27344 3.7852 -0.92969 4.3203 -2.8164 h 15.43 v 5.1914 l -7.8477 0.003906 c -0.19141 0 -0.375 0.046875 -0.53906 0.14062 l -4.4102 2.5469 c -1.4062 -1.3594 -3.5977 -1.4727 -5.1406 -0.26953 c -1.5391 1.207 -1.957 3.3633 -0.97656 5.0547 c 0.98047 1.6953 3.0586 2.4062 4.8711 1.6719 c 1.8125 -0.73828 2.8047 -2.6953 2.3242 -4.5938 l 4.1562 -2.3984 h 7.5586 l 0.003907 3.5781 c 0 0.38281 0.20312 0.73828 0.53906 0.93359 l 12.902 7.4531 v 9.0391 l -2.3984 4.1562 c -1.9062 -0.48438 -3.875 0.51172 -4.6133 2.332 c -0.74219 1.8203 -0.027344 3.9062 1.6719 4.8906 c 1.7031 0.98828 3.8672 0.56641 5.0781 -0.98047 c 1.2109 -1.5508 1.0938 -3.7539 -0.27344 -5.1641 l 2.5469 -4.4102 c 0.09375 -0.16406 0.14062 -0.34766 0.14062 -0.53906 v -8.082 l 5.1914 3 l 0.003906 12.664 c -1.8867 0.53516 -3.0898 2.3789 -2.8164 4.3203 c 0.26953 1.9414 1.9297 3.3867 3.8906 3.3867 s 3.6211 -1.4453 3.8906 -3.3867 c 0.27344 -1.9414 -0.92969 -3.7852 -2.8164 -4.3203 v -12.668 l 5.1914 -3 v 8.0859 h 0.003906 c 0 0.1875 0.046875 0.375 0.14062 0.53516 l 2.5469 4.4102 c -1.3516 1.4062 -1.4648 3.5898 -0.26562 5.1289 c 1.2031 1.5352 3.3555 1.9492 5.043 0.97266 c 1.6875 -0.97656 2.3984 -3.0469 1.6641 -4.8555 c -0.73438 -1.8086 -2.6875 -2.7969 -4.5781 -2.3242 l -2.3984 -4.1562 v -9.0352 l 12.906 -7.4531 h -0.003906 c 0.33594 -0.19141 0.53906 -0.54688 0.53906 -0.93359 v -3.5781 h 7.5586 l 4.1562 2.3984 h 0.003906 c -0.48438 1.9062 0.51172 3.875 2.332 4.6133 c 1.8203 0.74219 3.9062 0.027344 4.8906 -1.6719 c 0.98828 -1.7031 0.56641 -3.8672 -0.98047 -5.0781 c -1.5508 -1.2109 -3.7539 -1.0938 -5.1641 0.27344 l -4.4102 -2.5469 c -0.16406 -0.09375 -0.34766 -0.14062 -0.53906 -0.14062 h -7.8477 v -5.1953 z m 3.7773 -2.8555 v 0.003906 c 0.71875 0 1.3672 0.43359 1.6445 1.0977 c 0.27344 0.66406 0.12109 1.4297 -0.38672 1.9375 c -0.51172 0.50781 -1.2734 0.66016 -1.9375 0.38281 c -0.66406 -0.27344 -1.0977 -0.92188 -1.0977 -1.6406 c 0 -0.98047 0.79688 -1.7773 1.7773 -1.7773 z m -3.6797 -11.773 c 0.71875 0 1.3672 0.43359 1.6445 1.0977 c 0.27344 0.66406 0.12109 1.4297 -0.38672 1.9375 c -0.50781 0.50781 -1.2734 0.66016 -1.9375 0.38281 c -0.66406 -0.27344 -1.0977 -0.92188 -1.0977 -1.6406 c 0.003907 -0.98047 0.79688 -1.7773 1.7773 -1.7773 z m -25.613 -25.617 c 0.71875 0 1.3672 0.43359 1.6445 1.0977 c 0.27344 0.66797 0.12109 1.4297 -0.38672 1.9414 c -0.50781 0.50781 -1.2734 0.66016 -1.9375 0.38281 c -0.66406 -0.27344 -1.0977 -0.92188 -1.0977 -1.6406 c 0 -0.98438 0.79688 -1.7773 1.7773 -1.7812 z m -25.332 1.7812 c 0 -0.71875 0.43359 -1.3672 1.0977 -1.6445 c 0.66406 -0.27344 1.4297 -0.12109 1.9375 0.38672 c 0.50781 0.50781 0.66016 1.2734 0.38281 1.9375 c -0.27344 0.66406 -0.92188 1.0977 -1.6406 1.0977 c -0.98047 -0.003907 -1.7773 -0.79688 -1.7773 -1.7773 z m -23.836 27.391 c -0.71875 0 -1.3672 -0.43359 -1.6445 -1.0977 c -0.27344 -0.66406 -0.12109 -1.4297 0.38672 -1.9375 c 0.50781 -0.50781 1.2734 -0.66016 1.9375 -0.38672 c 0.66406 0.27734 1.0977 0.92578 1.0977 1.6445 c -0.003907 0.98047 -0.79688 1.7773 -1.7773 1.7773 z m -3.6797 11.777 c -0.71875 0 -1.3672 -0.43359 -1.6445 -1.0977 c -0.27344 -0.66406 -0.12109 -1.4297 0.38672 -1.9375 c 0.50781 -0.50781 1.2734 -0.66016 1.9375 -0.38672 c 0.66406 0.27734 1.0977 0.92578 1.0977 1.6445 c 0 0.98047 -0.79688 1.7773 -1.7773 1.7773 z m 3.6797 11.777 c -0.71875 0 -1.3672 -0.43359 -1.6445 -1.0977 c -0.27344 -0.66406 -0.12109 -1.4297 0.38672 -1.9375 c 0.50781 -0.50781 1.2734 -0.66016 1.9375 -0.38281 c 0.66406 0.27344 1.0977 0.92188 1.0977 1.6406 c -0.003907 0.98047 -0.79688 1.7773 -1.7773 1.7773 z m 25.613 25.617 c -0.71875 0 -1.3672 -0.43359 -1.6445 -1.0977 c -0.27344 -0.66797 -0.12109 -1.4297 0.38672 -1.9414 c 0.50781 -0.50781 1.2734 -0.66016 1.9375 -0.38281 c 0.66406 0.27344 1.0977 0.92188 1.0977 1.6406 c 0 0.98438 -0.79688 1.7773 -1.7773 1.7812 z m 25.336 -1.7773 l -0.003906 -0.003906 c 0 0.71875 -0.43359 1.3672 -1.0977 1.6445 c -0.66406 0.27344 -1.4297 0.12109 -1.9375 -0.38672 c -0.50781 -0.50781 -0.66016 -1.2734 -0.38281 -1.9375 c 0.27344 -0.66406 0.92188 -1.0977 1.6406 -1.0977 c 0.98047 0.003907 1.7773 0.79688 1.7773 1.7773 z m 23.832 -27.395 c 0.71875 0 1.3672 0.43359 1.6445 1.0977 c 0.27344 0.66406 0.12109 1.4297 -0.38672 1.9375 c -0.50781 0.50781 -1.2734 0.66016 -1.9375 0.38672 c -0.66406 -0.27734 -1.0977 -0.92578 -1.0977 -1.6445 c 0.003907 -0.98047 0.79688 -1.7773 1.7773 -1.7773 z m -39.168 -51.07 c 0 -0.71875 0.43359 -1.3672 1.0977 -1.6445 c 0.66406 -0.27344 1.4297 -0.12109 1.9375 0.38672 c 0.50781 0.50781 0.66016 1.2734 0.38672 1.9375 c -0.27734 0.66406 -0.92578 1.0977 -1.6445 1.0977 c -0.98047 0 -1.7773 -0.79688 -1.7773 -1.7773 z m 3.5547 82.141 c 0 0.71875 -0.43359 1.3672 -1.0977 1.6445 c -0.66406 0.27344 -1.4297 0.12109 -1.9375 -0.38672 c -0.50781 -0.50781 -0.66016 -1.2734 -0.38672 -1.9375 c 0.27734 -0.66406 0.92578 -1.0977 1.6445 -1.0977 c 0.98047 0 1.7773 0.79688 1.7773 1.7773 z m 17.934 -29.691 l -19.711 11.383 l -19.715 -11.379 v -22.766 l 19.715 -11.379 l 19.715 11.379 z m -20.25 -29.418 l -14.816 8.5547 c -0.33203 0.19141 -0.53906 0.54688 -0.53906 0.92969 v 17.109 c 0 0.38281 0.20703 0.73828 0.53906 0.92969 l 14.816 8.5547 c 0.33594 0.19531 0.74219 0.19531 1.0781 0 l 14.816 -8.5547 c 0.33203 -0.19141 0.53906 -0.54688 0.53906 -0.92969 v -17.109 c 0 -0.38281 -0.20703 -0.73828 -0.53906 -0.92969 l -14.816 -8.5547 c -0.33594 -0.19531 -0.74219 -0.19531 -1.0781 0 z m 14.281 24.73 l -11.59 -6.6914 l 11.59 -6.6914 z m -27.484 -13.383 l 11.59 6.6914 l -11.59 6.6914 z m 1.0742 -1.8633 l 11.59 -6.6914 l 0.003906 13.383 z m 11.59 10.418 l 0.003906 13.383 l -11.59 -6.6914 z m 2.1523 0 l 11.59 6.6914 l -11.59 6.6914 z m 0 -3.7266 v -13.383 l 11.59 6.6914 z" stroke-linecap="round" />
</g>
<g transform="matrix(1 0 0 1 250.25 368.21999999999997)" style=""  ><path fill="#1F8A70" opacity="1" d="M-105.16-4.37L-105.18-4.37C-105.36-4.37-105.50-4.22-105.50-4.04L-105.50 2.97C-105.50 3.15-105.36 3.30-105.18 3.30L-105.16 3.30C-104.98 3.30-104.83 3.15-104.83 2.97L-104.83-4.04C-104.83-4.22-104.98-4.37-105.16-4.37Z"/><path fill="#1F8A70" opacity="1" d="M-98.97-1.86C-99.63-1.86-100.06-1.58-100.32-1.20C-100.42-1.02-100.44-1.03-100.56-1.21C-100.94-1.76-101.60-1.86-101.98-1.86C-102.40-1.86-102.67-1.71-103.03-1.29C-103.06-1.26-103.10-1.27-103.10-1.32C-103.10-1.34-103.10-1.46-103.10-1.48C-103.10-1.63-103.27-1.73-103.42-1.73L-103.46-1.73C-103.63-1.73-103.78-1.58-103.78-1.41L-103.78 2.98C-103.78 3.16-103.63 3.30-103.46 3.30L-103.42 3.30C-103.25 3.30-103.10 3.16-103.10 2.98C-103.10 2.98-103.10 0.21-103.10 0.09C-103.10-0.70-102.77-1.23-101.98-1.23C-101.63-1.23-100.78-0.95-100.77 0.10L-100.77 2.98C-100.77 3.16-100.62 3.30-100.44 3.30L-100.41 3.30C-100.23 3.30-100.09 3.16-100.09 2.98C-100.09 2.98-100.09 0.21-100.09 0.09C-100.09-0.70-99.76-1.23-98.97-1.23C-98.62-1.23-97.75-0.95-97.75 0.12L-97.75 2.98C-97.75 3.16-97.61 3.30-97.43 3.30L-97.41 3.30C-97.23 3.30-97.08 3.16-97.08 2.98L-97.08 0.07C-97.08-1.58-98.38-1.86-98.97-1.86Z"/><path fill="#1F8A70" opacity="1" d="M-93.38-1.86C-94.10-1.86-94.83-1.56-95.23-1.05C-95.28-1.00-95.37-0.96-95.37-1.10C-95.37-1.11-95.37-1.27-95.37-1.41C-95.37-1.58-95.52-1.73-95.70-1.73L-95.72-1.73C-95.90-1.73-96.03-1.58-96.03-1.41L-96.03 4.45C-96.03 4.63-95.90 4.77-95.72 4.77L-95.70 4.77C-95.52 4.77-95.37 4.63-95.37 4.45C-95.37 4.45-95.37 2.73-95.37 2.66C-95.37 2.54-95.30 2.56-95.28 2.59C-94.83 3.13-94.14 3.43-93.40 3.43C-91.93 3.43-90.72 2.27-90.72 0.80C-90.72-0.67-91.91-1.86-93.38-1.86ZM-93.40 2.80C-94.49 2.80-95.36 1.89-95.36 0.80C-95.36-0.29-94.47-1.23-93.38-1.23C-92.28-1.23-91.39-0.29-91.39 0.80C-91.39 1.89-92.29 2.80-93.40 2.80Z"/><path fill="#1F8A70" opacity="1" d="M-86.00-1.73L-86.02-1.73C-86.19-1.73-86.34-1.58-86.34-1.41L-86.34 1.29C-86.34 2.33-87.02 2.80-87.76 2.80C-88.48 2.80-89.18 2.33-89.18 1.29L-89.18-1.41C-89.18-1.58-89.32-1.73-89.50-1.73L-89.53-1.73C-89.71-1.73-89.86-1.58-89.86-1.41L-89.86 1.33C-89.86 2.96-88.71 3.43-87.76 3.43C-86.80 3.43-85.67 2.96-85.67 1.33L-85.67-1.41C-85.67-1.58-85.82-1.73-86.00-1.73Z"/><path fill="#1F8A70" opacity="1" d="M-84.27-4.37L-84.29-4.37C-84.47-4.37-84.62-4.22-84.62-4.04L-84.62 2.97C-84.62 3.15-84.47 3.30-84.29 3.30L-84.27 3.30C-84.09 3.30-83.95 3.15-83.95 2.97L-83.95-4.04C-83.95-4.22-84.09-4.37-84.27-4.37Z"/><path fill="#1F8A70" opacity="1" d="M-79.83 1.25C-80.08 0.64-81.35 0.11-81.62-0.03C-81.71-0.08-82.02-0.25-82.02-0.58C-82.02-0.99-81.65-1.23-81.37-1.23C-81.05-1.23-80.98-1.13-80.87-1.04C-80.72-0.91-80.50-0.61-80.26-0.80C-80.11-0.90-80.09-1.08-80.17-1.22C-80.32-1.50-80.79-1.74-81.18-1.84C-81.30-1.87-81.55-1.87-81.76-1.82C-81.93-1.76-82.09-1.71-82.23-1.61C-82.55-1.35-82.72-0.98-82.72-0.58C-82.72-0.04-82.46 0.25-82.20 0.45C-81.87 0.70-81.48 0.74-81.05 1.01C-80.57 1.32-80.37 1.56-80.40 1.93C-80.43 2.34-80.82 2.80-81.29 2.80C-81.78 2.80-82.08 2.57-82.30 2.27C-82.39 2.14-82.55 1.74-82.90 1.92C-83.18 2.07-83.05 2.37-83.04 2.40C-82.69 3.03-82.15 3.43-81.29 3.43C-79.98 3.43-79.46 2.15-79.83 1.25Z"/><path fill="#1F8A70" opacity="1" d="M-79.37 0.80C-79.37 2.27-78.16 3.43-76.69 3.43C-75.95 3.43-75.26 3.13-74.81 2.59C-74.79 2.56-74.72 2.54-74.72 2.67C-74.72 2.74-74.72 2.98-74.72 2.98C-74.72 3.16-74.57 3.31-74.39 3.31L-74.37 3.31C-74.19 3.31-74.05 3.16-74.05 2.98L-74.05-1.41C-74.05-1.58-74.19-1.73-74.37-1.73L-74.39-1.73C-74.57-1.73-74.72-1.58-74.72-1.41C-74.72-1.28-74.72-1.11-74.72-1.10C-74.72-0.96-74.82-1.00-74.85-1.05C-75.26-1.56-75.99-1.86-76.71-1.86C-78.18-1.86-79.37-0.67-79.37 0.80ZM-78.70 0.80C-78.70-0.29-77.82-1.23-76.71-1.23C-75.62-1.23-74.73-0.29-74.73 0.80C-74.73 1.89-75.60 2.80-76.69 2.80C-77.79 2.80-78.70 1.89-78.70 0.80Z"/><path fill="#1F8A70" opacity="1" d="M-70.89-1.86C-71.29-1.86-71.87-1.75-72.23-1.35C-72.26-1.32-72.31-1.33-72.31-1.38C-72.31-1.41-72.31-1.38-72.31-1.42C-72.31-1.62-72.47-1.73-72.63-1.73L-72.67-1.73C-72.85-1.73-73.00-1.59-73.00-1.42L-72.99 2.97C-72.99 3.15-72.84 3.30-72.66 3.30L-72.63 3.30C-72.45 3.30-72.30 3.15-72.30 2.97C-72.30 2.97-72.30 0.20-72.30 0.07C-72.30-0.80-71.84-1.23-70.89-1.23C-70.16-1.23-69.37-0.78-69.37 0.26L-69.37 2.97C-69.37 3.15-69.23 3.30-69.05 3.30L-69.03 3.30C-68.85 3.30-68.70 3.15-68.70 2.97L-68.70 0.22C-68.70-1.41-69.93-1.86-70.89-1.86Z"/><path fill="#1F8A70" opacity="1" d="M-62.59-4.05C-62.59-4.22-62.74-4.37-62.91-4.37L-62.95-4.37C-63.13-4.37-63.27-4.22-63.27-4.05C-63.27-4.05-63.27-1.45-63.27-1.04C-63.27-0.95-63.36-0.95-63.39-1.01C-63.89-1.62-64.49-1.86-65.19-1.86C-65.92-1.86-66.55-1.62-67.06-1.09C-67.59-0.58-67.84 0.04-67.84 0.78C-67.84 1.51-67.59 2.13-67.06 2.66C-66.55 3.17-65.92 3.43-65.19 3.43C-64.49 3.43-63.83 3.10-63.35 2.54C-63.29 2.48-63.27 2.55-63.27 2.58C-63.27 2.67-63.27 2.98-63.27 2.98C-63.27 3.16-63.13 3.30-62.95 3.30L-62.91 3.30C-62.74 3.30-62.59 3.16-62.59 2.98ZM-63.22 0.78C-63.22 1.87-64.10 2.80-65.19 2.80C-66.29 2.80-67.17 1.87-67.17 0.78C-67.17-0.31-66.29-1.23-65.19-1.23C-64.10-1.23-63.22-0.31-63.22 0.78Z"/><path fill="#1F8A70" opacity="1" d="M-59.08-1.86C-60.54-1.86-61.73-0.67-61.73 0.79C-61.73 2.25-60.54 3.43-59.08 3.43C-57.61 3.43-56.43 2.25-56.43 0.79C-56.43-0.67-57.61-1.86-59.08-1.86ZM-59.08 2.80C-60.16 2.80-61.06 1.88-61.06 0.79C-61.06-0.30-60.16-1.23-59.08-1.23C-57.99-1.23-57.11-0.30-57.11 0.79C-57.11 1.88-57.99 2.80-59.08 2.80Z"/><path fill="#1F8A70" opacity="1" d=""/><path fill="#1F8A70" opacity="1" d="M-49.32-1.73C-49.32-1.73-49.73-1.73-49.81-1.73C-49.90-1.73-49.94-1.78-49.94-1.87C-49.94-1.96-49.94-4.04-49.94-4.04C-49.94-4.22-50.08-4.37-50.26-4.37L-50.28-4.37C-50.46-4.37-50.61-4.22-50.61-4.04C-50.61-4.04-50.61-2.01-50.61-1.90C-50.61-1.79-50.65-1.73-50.74-1.73C-50.82-1.73-51.23-1.73-51.23-1.73C-51.41-1.73-51.55-1.58-51.55-1.41L-51.55-1.38C-51.55-1.21-51.41-1.06-51.23-1.06C-51.23-1.06-50.80-1.06-50.73-1.06C-50.64-1.06-50.61-1.02-50.61-0.93C-50.61-0.84-50.61 2.97-50.61 2.97C-50.61 3.15-50.46 3.30-50.28 3.30L-50.26 3.30C-50.08 3.30-49.94 3.15-49.94 2.97C-49.94 2.97-49.94-0.85-49.94-0.94C-49.94-1.04-49.91-1.06-49.80-1.06C-49.71-1.06-49.32-1.06-49.32-1.06C-49.14-1.06-48.99-1.21-48.99-1.38L-48.99-1.41C-48.99-1.58-49.14-1.73-49.32-1.73Z"/><path fill="#1F8A70" opacity="1" d="M-44.27-1.73L-44.29-1.73C-44.47-1.73-44.61-1.58-44.61-1.41L-44.61 1.29C-44.61 2.33-45.30 2.80-46.03 2.80C-46.76 2.80-47.45 2.33-47.45 1.29L-47.45-1.41C-47.45-1.58-47.60-1.73-47.77-1.73L-47.81-1.73C-47.98-1.73-48.13-1.58-48.13-1.41L-48.13 1.33C-48.13 2.96-46.99 3.43-46.03 3.43C-45.08 3.43-43.94 2.96-43.94 1.33L-43.94-1.41C-43.94-1.58-44.09-1.73-44.27-1.73Z"/><path fill="#1F8A70" opacity="1" d=""/><path fill="#1F8A70" opacity="1" d="M-36.58-1.86C-36.99-1.86-37.57-1.75-37.93-1.35C-37.96-1.32-38.01-1.33-38.01-1.38C-38.01-1.41-38.01-1.38-38.01-1.42C-38.01-1.62-38.17-1.73-38.32-1.73L-38.37-1.73C-38.55-1.73-38.69-1.59-38.69-1.42L-38.68 2.97C-38.68 3.15-38.53 3.30-38.36 3.30L-38.32 3.30C-38.15 3.30-38.00 3.15-38.00 2.97C-38.00 2.97-38.00 0.20-38.00 0.07C-38.00-0.80-37.54-1.23-36.58-1.23C-35.86-1.23-35.07-0.78-35.07 0.26L-35.07 2.97C-35.07 3.15-34.92 3.30-34.74 3.30L-34.72 3.30C-34.54 3.30-34.40 3.15-34.40 2.97L-34.40 0.22C-34.40-1.41-35.63-1.86-36.58-1.86Z"/><path fill="#1F8A70" opacity="1" d="M-28.34 0.25C-28.41-0.27-28.63-0.72-29.00-1.09C-29.53-1.62-30.15-1.86-30.88-1.86C-31.62-1.86-32.23-1.62-32.76-1.09C-33.27-0.58-33.54 0.04-33.54 0.78C-33.54 1.51-33.27 2.13-32.76 2.66C-32.23 3.17-31.62 3.43-30.88 3.43C-30.15 3.43-29.53 3.17-29.00 2.65C-28.96 2.61-28.92 2.56-28.87 2.51C-28.72 2.34-28.73 2.10-28.92 1.98C-29.16 1.83-29.31 1.93-29.55 2.23C-29.79 2.52-30.34 2.80-30.88 2.80C-31.43 2.80-31.89 2.54-32.27 2.16C-32.61 1.83-32.80 1.40-32.84 0.87C-32.85 0.72-32.82 0.67-32.68 0.67L-28.65 0.67C-28.36 0.67-28.32 0.41-28.34 0.25ZM-29.26 0.00L-32.50 0.00C-32.67 0.00-32.72-0.01-32.64-0.15C-32.56-0.28-32.44-0.44-32.28-0.61C-31.89-1.00-31.43-1.23-30.88-1.23C-30.34-1.23-29.88-1.00-29.49-0.61C-29.35-0.47-29.24-0.33-29.17-0.20C-29.11-0.09-29.04 0.00-29.26 0.00Z"/><path fill="#1F8A70" opacity="1" d="M-22.65-1.73L-22.68-1.73C-22.86-1.73-23.01-1.58-23.01-1.41C-23.01-1.40-23.01-1.12-23.01-1.11C-23.01-0.96-23.08-1.01-23.09-1.02C-23.61-1.57-24.32-1.86-25.03-1.86C-26.49-1.86-27.69-0.78-27.69 0.80C-27.69 2.43-26.62 3.43-25.03 3.43C-24.32 3.43-23.54 3.14-23.05 2.53C-23.01 2.47-22.94 2.85-23.01 3.08C-23.07 3.32-23.28 3.60-23.59 3.92C-23.89 4.21-24.25 4.39-24.64 4.41C-24.82 4.42-25.08 4.51-25.05 4.84C-25.02 5.10-24.77 5.18-24.58 5.15C-24.01 5.06-23.52 4.83-23.10 4.41C-22.59 3.90-22.33 3.29-22.33 2.57L-22.33-1.41C-22.33-1.58-22.48-1.73-22.65-1.73ZM-25.03 2.80C-26.21 2.80-27.01 2.00-27.01 0.80C-27.01-0.25-26.12-1.23-25.03-1.23C-23.93-1.23-23.01-0.30-23.01 0.80C-23.01 1.89-23.93 2.80-25.03 2.80Z"/><path fill="#1F8A70" opacity="1" d="M-18.83-1.86C-20.29-1.86-21.47-0.67-21.47 0.79C-21.47 2.25-20.29 3.43-18.83 3.43C-17.36 3.43-16.17 2.25-16.17 0.79C-16.17-0.67-17.36-1.86-18.83-1.86ZM-18.83 2.80C-19.91 2.80-20.80 1.88-20.80 0.79C-20.80-0.30-19.91-1.23-18.83-1.23C-17.73-1.23-16.85-0.30-16.85 0.79C-16.85 1.88-17.73 2.80-18.83 2.80Z"/><path fill="#1F8A70" opacity="1" d="M-11.22 1.93C-11.58 2.44-12.16 2.80-12.82 2.80C-13.91 2.80-14.79 1.87-14.79 0.78C-14.79-0.31-13.91-1.23-12.82-1.23C-12.20-1.23-11.65-0.91-11.29-0.46C-11.12-0.25-11.06-0.32-11.06-0.48C-11.06-0.56-11.06-0.88-11.06-1.06C-11.06-1.16-11.10-1.23-11.14-1.27C-11.60-1.65-12.19-1.86-12.82-1.86C-14.29-1.86-15.47-0.68-15.47 0.78C-15.47 2.24-14.29 3.43-12.82 3.43C-12.19 3.43-11.60 3.20-11.15 2.84C-11.09 2.78-11.06 2.72-11.06 2.62C-11.06 2.43-11.06 2.09-11.06 1.96C-11.06 1.79-11.16 1.85-11.22 1.93Z"/><path fill="#1F8A70" opacity="1" d="M-9.90-1.73L-9.92-1.73C-10.10-1.73-10.25-1.58-10.25-1.41L-10.25 2.97C-10.25 3.15-10.10 3.30-9.92 3.30L-9.90 3.30C-9.72 3.30-9.58 3.15-9.58 2.97L-9.58-1.41C-9.58-1.58-9.72-1.73-9.90-1.73Z"/><path fill="#1F8A70" opacity="1" d="M-6.07-1.86C-7.53-1.86-8.71-0.67-8.71 0.79C-8.71 2.25-7.53 3.43-6.07 3.43C-4.60 3.43-3.41 2.25-3.41 0.79C-3.41-0.67-4.60-1.86-6.07-1.86ZM-6.07 2.80C-7.15 2.80-8.04 1.88-8.04 0.79C-8.04-0.30-7.15-1.23-6.07-1.23C-4.98-1.23-4.09-0.30-4.09 0.79C-4.09 1.88-4.98 2.80-6.07 2.80Z"/><path fill="#1F8A70" opacity="1" d=""/><path fill="#1F8A70" opacity="1" d="M1.46 0.80C1.46 2.27 2.67 3.43 4.14 3.43C4.88 3.43 5.57 3.13 6.02 2.59C6.04 2.56 6.11 2.54 6.11 2.67C6.11 2.74 6.11 2.98 6.11 2.98C6.11 3.16 6.26 3.31 6.44 3.31L6.46 3.31C6.64 3.31 6.78 3.16 6.78 2.98L6.78-1.41C6.78-1.58 6.64-1.73 6.46-1.73L6.44-1.73C6.26-1.73 6.11-1.58 6.11-1.41C6.11-1.28 6.11-1.11 6.11-1.10C6.11-0.96 6.01-1.00 5.97-1.05C5.57-1.56 4.84-1.86 4.12-1.86C2.65-1.86 1.46-0.67 1.46 0.80ZM2.13 0.80C2.13-0.29 3.01-1.23 4.12-1.23C5.21-1.23 6.10-0.29 6.10 0.80C6.10 1.89 5.23 2.80 4.14 2.80C3.03 2.80 2.13 1.89 2.13 0.80Z"/><path fill="#1F8A70" opacity="1" d="M8.18-4.37L8.16-4.37C7.98-4.37 7.83-4.22 7.83-4.04L7.83 2.97C7.83 3.15 7.98 3.30 8.16 3.30L8.18 3.30C8.36 3.30 8.51 3.15 8.51 2.97L8.51-4.04C8.51-4.22 8.36-4.37 8.18-4.37Z"/><path fill="#1F8A70" opacity="1" d=""/><path fill="#1F8A70" opacity="1" d="M16.82 1.25C16.57 0.64 15.30 0.11 15.04-0.03C14.94-0.08 14.64-0.25 14.64-0.58C14.64-0.99 15.00-1.23 15.28-1.23C15.60-1.23 15.68-1.13 15.78-1.04C15.93-0.91 16.15-0.61 16.39-0.80C16.54-0.90 16.56-1.08 16.49-1.22C16.33-1.50 15.87-1.74 15.48-1.84C15.35-1.87 15.10-1.87 14.89-1.82C14.72-1.76 14.56-1.71 14.43-1.61C14.10-1.35 13.93-0.98 13.93-0.58C13.93-0.04 14.20 0.25 14.45 0.45C14.78 0.70 15.17 0.74 15.60 1.01C16.09 1.32 16.29 1.56 16.25 1.93C16.22 2.34 15.83 2.80 15.36 2.80C14.87 2.80 14.57 2.57 14.35 2.27C14.26 2.14 14.10 1.74 13.76 1.92C13.47 2.07 13.60 2.37 13.61 2.40C13.97 3.03 14.50 3.43 15.36 3.43C16.67 3.43 17.19 2.15 16.82 1.25Z"/><path fill="#1F8A70" opacity="1" d="M17.82-1.73L17.80-1.73C17.62-1.73 17.47-1.58 17.47-1.41L17.47 2.97C17.47 3.15 17.62 3.30 17.80 3.30L17.82 3.30C18.00 3.30 18.14 3.15 18.14 2.97L18.14-1.41C18.14-1.58 18.00-1.73 17.82-1.73Z"/><path fill="#1F8A70" opacity="1" d="M24.05-1.73L24.01-1.73C23.84-1.73 23.69-1.58 23.69-1.41C23.69-1.40 23.69-1.12 23.69-1.11C23.69-0.96 23.61-1.01 23.60-1.02C23.08-1.57 22.38-1.86 21.66-1.86C20.20-1.86 19.01-0.78 19.01 0.80C19.01 2.43 20.08 3.43 21.66 3.43C22.38 3.43 23.15 3.14 23.65 2.53C23.69 2.47 23.75 2.85 23.69 3.08C23.63 3.32 23.42 3.60 23.10 3.92C22.81 4.21 22.44 4.39 22.05 4.41C21.87 4.42 21.61 4.51 21.64 4.84C21.67 5.10 21.92 5.18 22.11 5.15C22.68 5.06 23.17 4.83 23.59 4.41C24.11 3.90 24.36 3.29 24.36 2.57L24.36-1.41C24.36-1.58 24.21-1.73 24.05-1.73ZM21.66 2.80C20.49 2.80 19.69 2.00 19.69 0.80C19.69-0.25 20.57-1.23 21.66-1.23C22.76-1.23 23.69-0.30 23.69 0.80C23.69 1.89 22.76 2.80 21.66 2.80Z"/><path fill="#1F8A70" opacity="1" d="M29.27-1.73L29.25-1.73C29.07-1.73 28.93-1.58 28.93-1.41L28.93 1.29C28.93 2.33 28.25 2.80 27.51 2.80C26.79 2.80 26.09 2.33 26.09 1.29L26.09-1.41C26.09-1.58 25.95-1.73 25.77-1.73L25.74-1.73C25.56-1.73 25.41-1.58 25.41-1.41L25.41 1.33C25.41 2.96 26.55 3.43 27.51 3.43C28.47 3.43 29.60 2.96 29.60 1.33L29.60-1.41C29.60-1.58 29.45-1.73 29.27-1.73Z"/><path fill="#1F8A70" opacity="1" d="M31.00-1.73L30.98-1.73C30.80-1.73 30.65-1.58 30.65-1.41L30.65 2.97C30.65 3.15 30.80 3.30 30.98 3.30L31.00 3.30C31.17 3.30 31.32 3.15 31.32 2.97L31.32-1.41C31.32-1.58 31.17-1.73 31.00-1.73Z"/><path fill="#1F8A70" opacity="1" d="M37.38 0.25C37.31-0.27 37.09-0.72 36.72-1.09C36.19-1.62 35.57-1.86 34.84-1.86C34.10-1.86 33.48-1.62 32.96-1.09C32.45-0.58 32.18 0.04 32.18 0.78C32.18 1.51 32.45 2.13 32.96 2.66C33.48 3.17 34.10 3.43 34.84 3.43C35.57 3.43 36.19 3.17 36.72 2.65C36.76 2.61 36.80 2.56 36.84 2.51C37.00 2.34 36.99 2.10 36.80 1.98C36.56 1.83 36.41 1.93 36.17 2.23C35.93 2.52 35.37 2.80 34.84 2.80C34.29 2.80 33.83 2.54 33.45 2.16C33.11 1.83 32.92 1.40 32.88 0.87C32.87 0.72 32.90 0.67 33.04 0.67L37.07 0.67C37.36 0.67 37.40 0.41 37.38 0.25ZM36.46 0.00L33.22 0.00C33.05 0.00 33.00-0.01 33.08-0.15C33.16-0.28 33.27-0.44 33.44-0.61C33.83-1.00 34.29-1.23 34.84-1.23C35.37-1.23 35.84-1.00 36.23-0.61C36.37-0.47 36.48-0.33 36.55-0.20C36.61-0.09 36.68 0.00 36.46 0.00Z"/><path fill="#1F8A70" opacity="1" d="M40.33-1.86C39.92-1.86 39.34-1.75 38.99-1.35C38.96-1.32 38.90-1.33 38.90-1.38C38.90-1.41 38.90-1.38 38.90-1.42C38.90-1.62 38.75-1.73 38.59-1.73L38.55-1.73C38.37-1.73 38.22-1.59 38.22-1.42L38.23 2.97C38.23 3.15 38.38 3.30 38.56 3.30L38.59 3.30C38.77 3.30 38.91 3.15 38.91 2.97C38.91 2.97 38.91 0.20 38.91 0.07C38.91-0.80 39.38-1.23 40.33-1.23C41.06-1.23 41.84-0.78 41.84 0.26L41.84 2.97C41.84 3.15 41.99 3.30 42.17 3.30L42.19 3.30C42.37 3.30 42.51 3.15 42.51 2.97L42.51 0.22C42.51-1.41 41.29-1.86 40.33-1.86Z"/><path fill="#1F8A70" opacity="1" d="M45.61-1.73C45.61-1.73 45.20-1.73 45.12-1.73C45.03-1.73 44.99-1.78 44.99-1.87C44.99-1.96 44.99-4.04 44.99-4.04C44.99-4.22 44.85-4.37 44.67-4.37L44.65-4.37C44.47-4.37 44.32-4.22 44.32-4.04C44.32-4.04 44.32-2.01 44.32-1.90C44.32-1.79 44.28-1.73 44.19-1.73C44.11-1.73 43.70-1.73 43.70-1.73C43.52-1.73 43.38-1.58 43.38-1.41L43.38-1.38C43.38-1.21 43.52-1.06 43.70-1.06C43.70-1.06 44.13-1.06 44.21-1.06C44.29-1.06 44.32-1.02 44.32-0.93C44.32-0.84 44.32 2.97 44.32 2.97C44.32 3.15 44.47 3.30 44.65 3.30L44.67 3.30C44.85 3.30 44.99 3.15 44.99 2.97C44.99 2.97 44.99-0.85 44.99-0.94C44.99-1.04 45.02-1.06 45.13-1.06C45.22-1.06 45.61-1.06 45.61-1.06C45.79-1.06 45.94-1.21 45.94-1.38L45.94-1.41C45.94-1.58 45.79-1.73 45.61-1.73Z"/><path fill="#1F8A70" opacity="1" d="M51.39 0.25C51.31-0.27 51.09-0.72 50.73-1.09C50.20-1.62 49.58-1.86 48.85-1.86C48.11-1.86 47.49-1.62 46.97-1.09C46.45-0.58 46.19 0.04 46.19 0.78C46.19 1.51 46.45 2.13 46.97 2.66C47.49 3.17 48.11 3.43 48.85 3.43C49.58 3.43 50.20 3.17 50.73 2.65C50.77 2.61 50.81 2.56 50.85 2.51C51.01 2.34 51.00 2.10 50.81 1.98C50.57 1.83 50.42 1.93 50.18 2.23C49.94 2.52 49.38 2.80 48.85 2.80C48.30 2.80 47.84 2.54 47.46 2.16C47.11 1.83 46.92 1.40 46.88 0.87C46.87 0.72 46.90 0.67 47.05 0.67L51.07 0.67C51.37 0.67 51.41 0.41 51.39 0.25ZM50.46 0.00L47.23 0.00C47.06 0.00 47.01-0.01 47.08-0.15C47.17-0.28 47.28-0.44 47.45-0.61C47.84-1.00 48.30-1.23 48.85-1.23C49.38-1.23 49.84-1.00 50.23-0.61C50.38-0.47 50.48-0.33 50.56-0.20C50.62-0.09 50.68 0.00 50.46 0.00Z"/><path fill="#1F8A70" opacity="1" d=""/><path fill="#1F8A70" opacity="1" d="M58.54-1.86C58.13-1.86 57.55-1.75 57.19-1.35C57.16-1.32 57.11-1.33 57.11-1.38C57.11-1.41 57.11-1.38 57.11-1.42C57.11-1.62 56.95-1.73 56.79-1.73L56.75-1.73C56.57-1.73 56.43-1.59 56.43-1.42L56.44 2.97C56.44 3.15 56.58 3.30 56.76 3.30L56.79 3.30C56.97 3.30 57.12 3.15 57.12 2.97C57.12 2.97 57.12 0.20 57.12 0.07C57.12-0.80 57.58-1.23 58.54-1.23C59.26-1.23 60.05-0.78 60.05 0.26L60.05 2.97C60.05 3.15 60.20 3.30 60.38 3.30L60.40 3.30C60.57 3.30 60.72 3.15 60.72 2.97L60.72 0.22C60.72-1.41 59.49-1.86 58.54-1.86Z"/><path fill="#1F8A70" opacity="1" d="M62.12-1.73L62.10-1.73C61.92-1.73 61.77-1.58 61.77-1.41L61.77 2.97C61.77 3.15 61.92 3.30 62.10 3.30L62.12 3.30C62.30 3.30 62.44 3.15 62.44 2.97L62.44-1.41C62.44-1.58 62.30-1.73 62.12-1.73Z"/><path fill="#1F8A70" opacity="1" d="M67.61-1.73C67.59-1.73 67.55-1.73 67.55-1.73C67.28-1.73 67.20-1.69 67.08-1.44C67.08-1.44 65.79 1.59 65.69 1.81C65.66 1.87 65.59 2.05 65.58 2.10C65.54 2.26 65.51 2.25 65.47 2.10C65.46 2.05 65.37 1.85 65.34 1.79C65.24 1.58 63.97-1.44 63.97-1.44C63.86-1.65 63.79-1.73 63.50-1.73L63.44-1.73C63.20-1.73 63.14-1.55 63.22-1.36C63.29-1.22 65.38 3.31 65.38 3.31C65.46 3.48 65.58 3.48 65.66 3.31C65.66 3.31 67.75-1.21 67.84-1.41C67.94-1.59 67.76-1.73 67.61-1.73Z"/><path fill="#1F8A70" opacity="1" d="M73.30 0.25C73.23-0.27 73.01-0.72 72.64-1.09C72.11-1.62 71.49-1.86 70.76-1.86C70.02-1.86 69.41-1.62 68.88-1.09C68.37-0.58 68.10 0.04 68.10 0.78C68.10 1.51 68.37 2.13 68.88 2.66C69.41 3.17 70.02 3.43 70.76 3.43C71.49 3.43 72.11 3.17 72.64 2.65C72.68 2.61 72.72 2.56 72.77 2.51C72.92 2.34 72.91 2.10 72.72 1.98C72.48 1.83 72.33 1.93 72.09 2.23C71.85 2.52 71.30 2.80 70.76 2.80C70.21 2.80 69.75 2.54 69.37 2.16C69.03 1.83 68.84 1.40 68.80 0.87C68.79 0.72 68.82 0.67 68.96 0.67L72.99 0.67C73.28 0.67 73.32 0.41 73.30 0.25ZM72.38 0.00L69.14 0.00C68.97 0.00 68.92-0.01 69.00-0.15C69.08-0.28 69.20-0.44 69.36-0.61C69.75-1.00 70.21-1.23 70.76-1.23C71.30-1.23 71.76-1.00 72.15-0.61C72.29-0.47 72.40-0.33 72.47-0.20C72.53-0.09 72.60 0.00 72.38 0.00Z"/><path fill="#1F8A70" opacity="1" d="M74.49-4.37L74.47-4.37C74.29-4.37 74.14-4.22 74.14-4.04L74.14 2.97C74.14 3.15 74.29 3.30 74.47 3.30L74.49 3.30C74.67 3.30 74.81 3.15 74.81 2.97L74.81-4.04C74.81-4.22 74.67-4.37 74.49-4.37Z"/><path fill="#1F8A70" opacity="1" d=""/><path fill="#1F8A70" opacity="1" d="M85.12-4.05C85.12-4.22 84.98-4.37 84.81-4.37L84.77-4.37C84.59-4.37 84.44-4.22 84.44-4.05C84.44-4.05 84.44-1.45 84.44-1.04C84.44-0.95 84.36-0.95 84.33-1.01C83.82-1.62 83.22-1.86 82.52-1.86C81.80-1.86 81.17-1.62 80.65-1.09C80.13-0.58 79.87 0.04 79.87 0.78C79.87 1.51 80.13 2.13 80.65 2.66C81.17 3.17 81.80 3.43 82.52 3.43C83.22 3.43 83.88 3.10 84.37 2.54C84.42 2.48 84.44 2.55 84.44 2.58C84.44 2.67 84.44 2.98 84.44 2.98C84.44 3.16 84.59 3.30 84.77 3.30L84.81 3.30C84.98 3.30 85.12 3.16 85.12 2.98ZM84.49 0.78C84.49 1.87 83.61 2.80 82.52 2.80C81.43 2.80 80.55 1.87 80.55 0.78C80.55-0.31 81.43-1.23 82.52-1.23C83.61-1.23 84.49-0.31 84.49 0.78Z"/><path fill="#1F8A70" opacity="1" d="M86.52-1.73L86.50-1.73C86.32-1.73 86.17-1.58 86.17-1.41L86.17 2.97C86.17 3.15 86.32 3.30 86.50 3.30L86.52 3.30C86.70 3.30 86.85 3.15 86.85 2.97L86.85-1.41C86.85-1.58 86.70-1.73 86.52-1.73Z"/><path fill="#1F8A70" opacity="1" d="M92.75-1.73L92.71-1.73C92.54-1.73 92.39-1.58 92.39-1.41C92.39-1.40 92.39-1.12 92.39-1.11C92.39-0.96 92.32-1.01 92.31-1.02C91.78-1.57 91.08-1.86 90.36-1.86C88.90-1.86 87.71-0.78 87.71 0.80C87.71 2.43 88.78 3.43 90.36 3.43C91.08 3.43 91.85 3.14 92.35 2.53C92.39 2.47 92.45 2.85 92.39 3.08C92.33 3.32 92.12 3.60 91.80 3.92C91.51 4.21 91.14 4.39 90.75 4.41C90.57 4.42 90.31 4.51 90.34 4.84C90.37 5.10 90.63 5.18 90.81 5.15C91.38 5.06 91.87 4.83 92.29 4.41C92.81 3.90 93.06 3.29 93.06 2.57L93.06-1.41C93.06-1.58 92.91-1.73 92.75-1.73ZM90.36 2.80C89.19 2.80 88.39 2.00 88.39 0.80C88.39-0.25 89.27-1.23 90.36-1.23C91.47-1.23 92.39-0.30 92.39 0.80C92.39 1.89 91.47 2.80 90.36 2.80Z"/><path fill="#1F8A70" opacity="1" d="M94.46-1.73L94.44-1.73C94.26-1.73 94.11-1.58 94.11-1.41L94.11 2.97C94.11 3.15 94.26 3.30 94.44 3.30L94.46 3.30C94.64 3.30 94.78 3.15 94.78 2.97L94.78-1.41C94.78-1.58 94.64-1.73 94.46-1.73Z"/><path fill="#1F8A70" opacity="1" d="M97.88-1.73C97.88-1.73 97.47-1.73 97.39-1.73C97.30-1.73 97.26-1.78 97.26-1.87C97.26-1.96 97.26-4.04 97.26-4.04C97.26-4.22 97.11-4.37 96.94-4.37L96.91-4.37C96.74-4.37 96.59-4.22 96.59-4.04C96.59-4.04 96.59-2.01 96.59-1.90C96.59-1.79 96.55-1.73 96.46-1.73C96.38-1.73 95.97-1.73 95.97-1.73C95.79-1.73 95.64-1.58 95.64-1.41L95.64-1.38C95.64-1.21 95.79-1.06 95.97-1.06C95.97-1.06 96.40-1.06 96.47-1.06C96.56-1.06 96.59-1.02 96.59-0.93C96.59-0.84 96.59 2.97 96.59 2.97C96.59 3.15 96.74 3.30 96.91 3.30L96.94 3.30C97.11 3.30 97.26 3.15 97.26 2.97C97.26 2.97 97.26-0.85 97.26-0.94C97.26-1.04 97.29-1.06 97.40-1.06C97.49-1.06 97.88-1.06 97.88-1.06C98.06-1.06 98.21-1.21 98.21-1.38L98.21-1.41C98.21-1.58 98.06-1.73 97.88-1.73Z"/><path fill="#1F8A70" opacity="1" d="M98.46 0.80C98.46 2.27 99.67 3.43 101.14 3.43C101.88 3.43 102.56 3.13 103.02 2.59C103.04 2.56 103.11 2.54 103.11 2.67C103.11 2.74 103.11 2.98 103.11 2.98C103.11 3.16 103.26 3.31 103.44 3.31L103.46 3.31C103.63 3.31 103.78 3.16 103.78 2.98L103.78-1.41C103.78-1.58 103.63-1.73 103.46-1.73L103.44-1.73C103.26-1.73 103.11-1.58 103.11-1.41C103.11-1.28 103.11-1.11 103.11-1.10C103.11-0.96 103.00-1.00 102.97-1.05C102.56-1.56 101.84-1.86 101.11-1.86C99.64-1.86 98.46-0.67 98.46 0.80ZM99.13 0.80C99.13-0.29 100.01-1.23 101.11-1.23C102.21-1.23 103.10-0.29 103.10 0.80C103.10 1.89 102.23 2.80 101.14 2.80C100.03 2.80 99.13 1.89 99.13 0.80Z"/><path fill="#1F8A70" opacity="1" d="M105.18-4.37L105.16-4.37C104.98-4.37 104.83-4.22 104.83-4.04L104.83 2.97C104.83 3.15 104.98 3.30 105.16 3.30L105.18 3.30C105.36 3.30 105.50 3.15 105.50 2.97L105.50-4.04C105.50-4.22 105.36-4.37 105.18-4.37Z"/></g></svg>